<?xml version="1.0" encoding="UTF-8"?>
<svg version="1.1" xmlns="http://www.w3.org/2000/svg" width="512" height="512">
<path d="M0 0 C1.52830948 0.09894562 1.52830948 0.09894562 3.0874939 0.19989014 C6.28560452 0.43527533 9.47545248 0.7217627 12.66796875 1.0234375 C13.82823074 1.12967438 14.98849274 1.23591125 16.18391418 1.34536743 C18.61692041 1.5696534 21.04967476 1.79668741 23.48217773 2.02636719 C27.18726083 2.3749775 30.89330956 2.71147656 34.59960938 3.046875 C36.97662993 3.26750389 39.35358552 3.48883406 41.73046875 3.7109375 C42.82755661 3.80998383 43.92464447 3.90903015 45.05497742 4.01107788 C48.04365934 4.29784411 51.02058402 4.62982416 54 5 C54.8258107 5.09539566 55.6516214 5.19079132 56.50245667 5.28907776 C62.8125586 6.30505337 66.07939984 9.15262145 70.37890625 13.73046875 C71.03527573 14.39911453 71.6916452 15.06776031 72.36790466 15.75666809 C74.45001616 17.88426738 76.50663747 20.03455574 78.5625 22.1875 C80.62691113 24.31721763 82.69633669 26.44192295 84.76780701 28.56477356 C86.04980723 29.88201472 87.32692973 31.20402906 88.59803772 32.53178406 C91.42355542 35.46568385 94.27159566 38.27188306 97.38865662 40.89559937 C103.68799844 46.37818687 109.49946437 52.36846741 115.39257812 58.27905273 C116.73342759 59.62018466 118.07449806 60.96109566 119.41577148 62.30180359 C123.03725894 65.92300537 126.65566544 69.54727139 130.27350807 73.17211413 C134.06200964 76.96688756 137.85336311 80.75880953 141.64440918 84.55104065 C148.8143436 91.72407712 155.98172614 98.8996578 163.14818525 106.07616621 C171.31068257 114.24985972 179.47603606 122.42069743 187.6416254 130.5913018 C204.43092023 147.39103548 221.21664231 164.19433511 238 181 C242.9364978 176.81983192 247.74003422 172.53517306 252.45509338 168.10725403 C253.14828472 167.45640549 253.84147605 166.80555696 254.55567318 166.13498574 C262.10400069 159.01014718 269.41904561 151.66202825 276.71850586 144.28393555 C278.21334612 142.77731315 279.70848267 141.27098468 281.20388794 139.7649231 C284.38767394 136.55789606 287.57007939 133.34950782 290.75156975 130.14020348 C295.78634819 125.06281393 300.82853092 119.9928204 305.87245178 114.92451477 C306.7280596 114.06471864 307.58366742 113.20492251 308.46520275 112.31907195 C310.21243263 110.56334165 311.95968514 108.80763388 313.70695984 107.05194819 C325.42543412 95.27673457 337.1394988 83.49726275 348.83129883 71.69555664 C356.75510326 63.69737632 364.69121885 55.71164398 372.64188677 47.7401641 C376.83814425 43.53194003 381.02783998 39.31761902 385.20249748 35.08795738 C389.11845839 31.12059542 393.05043528 27.1698482 396.99530411 23.2312355 C398.43773186 21.78528833 399.87416969 20.33333676 401.30404472 18.8749752 C403.25913609 16.88272711 405.23477404 14.91334024 407.21690369 12.94804382 C407.77508929 12.36878621 408.33327489 11.7895286 408.9083752 11.19271773 C413.19419266 7.01242447 417.12042473 5.78218735 423 5 C424.02177338 4.85799164 425.04354675 4.71598328 426.09628296 4.56967163 C427.02018829 4.48528839 427.94409363 4.40090515 428.89599609 4.31396484 C429.96095306 4.21401215 431.02591003 4.11405945 432.12313843 4.01107788 C433.24523712 3.91203156 434.36733582 3.81298523 435.5234375 3.7109375 C436.70539703 3.60278717 437.88735657 3.49463684 439.10513306 3.38320923 C441.59424524 3.15691884 444.08362279 2.93353064 446.57324219 2.71289062 C450.35690321 2.3766084 454.13938104 2.02882566 457.921875 1.6796875 C460.35150027 1.46024743 462.781186 1.24147543 465.2109375 1.0234375 C466.32898773 0.92034271 467.44703796 0.81724792 468.59896851 0.71102905 C487.39320583 -0.93194062 487.39320583 -0.93194062 492.125 1.8125 C495.55590626 5.81522397 495.02995776 9.55706553 494.7109375 14.51171875 C494.66367523 15.29278488 494.61641296 16.07385101 494.56771851 16.87858582 C493.89603517 27.36841709 492.94039902 37.83597264 491.953125 48.30004883 C491.62142395 51.85078023 491.30690569 55.4028062 490.9921875 58.95507812 C490.77970166 61.22666151 490.566198 63.49814997 490.3515625 65.76953125 C490.26081451 66.82469437 490.17006653 67.87985748 490.0765686 68.96699524 C489.97991913 69.94959824 489.88326965 70.93220123 489.78369141 71.94458008 C489.70454498 72.80295975 489.62539856 73.66133942 489.54385376 74.54573059 C488.15911294 80.7947028 483.44996721 84.82893407 479.07148743 89.16902161 C478.00796068 90.23511163 478.00796068 90.23511163 476.92294854 91.32273883 C474.54621456 93.70276674 472.16240343 96.07557641 469.77856445 98.44848633 C468.07328057 100.15320608 466.36843695 101.85836632 464.66400146 103.56393433 C460.99360609 107.23478512 457.32016271 110.90255602 453.64391518 114.56754494 C448.32871193 119.86648082 443.0190525 125.17094334 437.71072152 130.47676262 C429.09775856 139.08535041 420.48034055 147.68946417 411.86010742 156.29077148 C403.48731942 164.64519606 395.11663859 173.00172265 386.7487793 181.36108398 C386.23281723 181.8765206 385.71685517 182.39195722 385.18525789 182.92301313 C382.59679106 185.50886985 380.00836557 188.09476793 377.41996062 190.68068659 C355.95304469 212.12687559 334.47881896 233.56573178 313 255 C317.48976518 260.32213211 317.48976518 260.32213211 322.2651062 265.38536072 C322.83710251 265.95873169 323.40909882 266.53210266 323.99842834 267.12284851 C324.60335617 267.72418106 325.208284 268.32551361 325.83154297 268.94506836 C326.81309105 269.92683548 326.81309105 269.92683548 327.81446838 270.92843628 C329.95467689 273.06795414 332.09839383 275.20391876 334.2421875 277.33984375 C335.73598749 278.83177655 337.22956528 280.32393186 338.72293091 281.81629944 C342.63662239 285.72618949 346.55330865 289.63306594 350.47064209 293.53930664 C354.47444088 297.53284006 358.47537813 301.52923809 362.4765625 305.52539062 C370.31492213 313.35305485 378.15645093 321.17753599 386 329 C388.70034175 327.9568914 391.13090636 326.92207955 393.625 325.4375 C400.84668149 322.36159862 408.26095962 322.2561611 415.6484375 324.87109375 C422.53033426 328.17486146 427.04920811 333.33624216 430.15234375 340.2578125 C432.44165091 347.66377392 431.86446836 355.06344041 428.3046875 361.9375 C422.76292408 370.69813199 414.34155217 377.75780718 407 385 C414.89360052 394.51644322 423.74570772 403.18725866 432.42861366 411.9770546 C435.31976278 414.90399813 438.20136532 417.83910955 441.06201172 420.79589844 C443.84991268 423.67713938 446.65976842 426.53520636 449.48600388 429.37883759 C450.55025286 430.45707103 451.60678273 431.54298687 452.65483475 432.63697052 C458.61660159 438.84717244 463.55679182 443.10122257 472.32333374 444.46746826 C480.19763827 446.03408758 486.56472082 452.62284989 491 459 C496.03195772 467.14343453 496.11203139 476.7219355 495 486 C494.15380579 489.42280804 492.92535266 492.06098815 491 495 C490.57589844 495.69351562 490.15179688 496.38703125 489.71484375 497.1015625 C486.07980886 502.50855034 481.66682302 505.86910466 476 509 C475.07767578 509.51240234 475.07767578 509.51240234 474.13671875 510.03515625 C466.12677274 513.72281876 456.23995844 513.08337435 448.0625 510.3125 C439.11966057 506.52848742 433.77698246 501.56134519 429 493 C428.02318529 490.45659566 427.25656991 487.96795163 426.60546875 485.32421875 C425.16862979 479.80861114 422.86362264 476.43533597 418.81591797 472.4753418 C418.28893311 471.94791885 417.76194824 471.42049591 417.21899414 470.87709045 C415.48374434 469.14392262 413.73812849 467.42161045 411.9921875 465.69921875 C410.7836988 464.4963281 409.57587286 463.29277127 408.36868286 462.08857727 C405.19581694 458.92714361 402.01404421 455.77482443 398.83032227 452.62432861 C395.58066495 449.40540692 392.33952597 446.1779332 389.09765625 442.95117188 C382.74007157 436.6257228 376.37304313 430.30987136 370 424 C366.72549712 425.55313199 364.59493172 427.19109878 362.06640625 429.80859375 C361.33486328 430.55560547 360.60332031 431.30261719 359.84960938 432.07226562 C358.32870936 433.64511782 356.80787569 435.21803416 355.28710938 436.79101562 C354.55427734 437.53931641 353.82144531 438.28761719 353.06640625 439.05859375 C352.40584229 439.74236084 351.74527832 440.42612793 351.06469727 441.13061523 C345.64652174 446.03625198 339.70057939 447.92723561 332.4765625 448.0390625 C324.42893901 447.51906221 318.69136227 445.1289078 313.1875 439.1875 C307.29007489 431.84937971 306.07728024 425.25180344 307 416 C308.17352691 411.14622885 310.42336045 407.29439925 313 403 C288.91 378.91 264.82 354.82 240 330 C236.74872409 331.62563796 235.24482273 332.50608216 232.82354736 334.9359436 C231.91919197 335.836175 231.91919197 335.836175 230.99656677 336.7545929 C230.34704544 337.41130478 229.69752411 338.06801666 229.02832031 338.74462891 C228.3352327 339.43742447 227.64214508 340.13022003 226.92805481 340.8440094 C224.63997201 343.13348474 222.35905349 345.4299613 220.078125 347.7265625 C218.4924408 349.31597709 216.90631426 350.90495048 215.31976318 352.49349976 C211.14622146 356.67467585 206.97872083 360.86182346 202.81243896 365.05023193 C198.55957281 369.32356063 194.30103581 373.59122973 190.04296875 377.859375 C181.68974441 386.23404581 173.34288952 394.61503443 165 403 C166.05934094 405.72860546 167.13793926 408.24829067 168.5625 410.8125 C171.72621059 417.82768435 171.2502552 423.83646568 169 431 C166.23835688 437.8383544 161.49849047 442.57352321 155 446 C146.94049563 448.24514764 139.40366931 449.01256459 131.91113281 444.83544922 C126.07618551 441.01232376 121.27180131 436.63600024 116.4375 431.625 C115.71498047 430.88894531 114.99246094 430.15289062 114.24804688 429.39453125 C112.49152886 427.60311553 110.74248554 425.80504946 109 424 C105.17108278 425.58984754 102.67816063 428.02448204 99.72827148 430.90185547 C99.21556702 431.39981125 98.70286255 431.89776703 98.17462158 432.41081238 C96.48409567 434.05691109 94.80171816 435.71098353 93.12109375 437.3671875 C92.54378069 437.93510136 91.96646763 438.50301521 91.37166023 439.08813858 C88.31452392 442.09774185 85.2643511 445.11422274 82.21899414 448.13574219 C79.08808858 451.23900961 75.93232725 454.31565202 72.77017117 457.38702202 C70.32971376 459.76736468 67.90970033 462.16773916 65.494524 464.57370377 C64.34078745 465.71592788 63.17948868 466.85057026 62.01031303 467.97698593 C55.60568998 474.16109594 50.87685503 479.24100757 49.45082092 488.40628052 C48.05241852 496.45174464 41.40140837 502.48605837 35 507 C26.56089891 511.62915252 17.0404988 512.41511687 7.6484375 510.52734375 C5.61864577 509.85209431 3.87028578 509.03730135 2 508 C1.26265625 507.5978125 0.5253125 507.195625 -0.234375 506.78125 C-7.53010648 502.37443233 -13.90899637 495.7638957 -16.5625 487.48828125 C-18.67555161 475.47030021 -17.175974 464.92094197 -10.3125 454.75 C-5.46692537 448.76855501 -0.17559349 445.21046882 7.46582031 444.1159668 C16.25472158 442.00082438 21.36443806 435.76145133 27.421875 429.45703125 C28.65826936 428.20382006 29.89668887 426.95260395 31.13702393 425.70329285 C34.37292293 422.43327268 37.58085882 419.13714045 40.78344727 415.83453369 C44.06552389 412.45986217 47.37370498 409.11099167 50.6796875 405.75976562 C57.14539004 399.19796874 63.58180396 392.60824812 70 386 C69.05954818 384.88901982 68.11709795 383.77973114 67.17382812 382.67114258 C66.38691589 381.74426384 66.38691589 381.74426384 65.58410645 380.79866028 C63.36318494 378.27693372 60.93901834 375.99685788 58.5 373.6875 C51.63459487 367.00497044 45.96573878 359.68254915 45.75 349.8125 C45.89659043 341.68339408 48.44146481 335.61340744 54.05859375 329.7265625 C60.13442123 324.32311029 66.94174144 322.69823442 75 323 C80.43501626 323.99857942 84.68775669 325.50305554 89 329 C91.88330643 327.69316301 93.94564108 326.30277863 96.17645264 324.0640564 C96.77935623 323.46390213 97.38225983 322.86374786 98.00343323 322.2454071 C98.65295456 321.58869522 99.30247589 320.93198334 99.97167969 320.25537109 C101.01131111 319.21617775 101.01131111 319.21617775 102.07194519 318.1559906 C104.36002799 315.86651526 106.64094651 313.5700387 108.921875 311.2734375 C110.5075592 309.68402291 112.09368574 308.09504952 113.68023682 306.50650024 C117.85377854 302.32532415 122.02127917 298.13817654 126.18756104 293.94976807 C130.44042719 289.67643937 134.69896419 285.40877027 138.95703125 281.140625 C147.31025559 272.76595419 155.65711048 264.38496557 164 256 C159.8409287 251.03718499 155.51141724 246.3772255 150.91400146 241.82066345 C150.22424925 241.13287908 149.53449704 240.4450947 148.82384324 239.73646837 C146.52783666 237.44813885 144.22826078 235.16343053 141.92871094 232.87866211 C140.27567386 231.23246006 138.62288901 229.5860047 136.97033691 227.9393158 C133.4194405 224.40172014 129.86713559 220.86554703 126.31383514 217.33036613 C120.69675591 211.7411687 115.08510962 206.14653589 109.47467041 200.55067444 C107.55233519 198.63346245 105.62997458 196.71627593 103.7076149 194.79908848 C103.22733591 194.32009552 102.74705691 193.84110256 102.25222401 193.34759466 C96.79557423 187.90565326 91.33803541 182.46460402 85.87988281 177.02416992 C85.38137716 176.52727901 84.88287151 176.03038811 84.36925963 175.5184399 C76.27915202 167.45490481 68.18346666 159.39698876 60.086184 151.34065967 C51.76402563 143.06023415 43.44953139 134.77216639 35.14169145 126.47737509 C30.4801612 121.82392575 25.81496761 117.17428173 21.14098358 112.53333855 C16.74940231 108.17275058 12.36713536 103.80301923 7.99189758 99.42603493 C6.38368897 97.82052739 4.77203484 96.21846277 3.15673065 94.6200943 C0.95450624 92.43996659 -1.23508296 90.24788328 -3.42193604 88.05235291 C-4.06569695 87.42092548 -4.70945786 86.78949805 -5.37272668 86.13893646 C-10.35628668 81.09283647 -12.03576804 76.58614321 -12.68603516 69.50805664 C-12.78598785 68.45578384 -12.88594055 67.40351105 -12.98892212 66.3193512 C-13.08796844 65.19431686 -13.18701477 64.06928253 -13.2890625 62.91015625 C-13.39721283 61.73343857 -13.50536316 60.55672089 -13.61679077 59.34434509 C-13.84376279 56.85415042 -14.0671182 54.36362382 -14.28710938 51.87280273 C-14.62112172 48.10623434 -14.96984397 44.34124044 -15.3203125 40.57617188 C-17.19952737 20.02714326 -17.19952737 20.02714326 -17.4609375 11.05859375 C-17.49751465 9.97763428 -17.5340918 8.8966748 -17.57177734 7.78295898 C-17 5 -17 5 -15.22119141 2.12133789 C-10.27228104 -1.13780128 -5.76368426 -0.41895672 0 0 Z M2 19 C2.0042033 19.5782808 2.0084066 20.1565616 2.01273727 20.75236607 C2.01600651 21.60547336 2.01927574 22.45858065 2.02264404 23.33753967 C2.02873436 24.34919756 2.03482468 25.36085545 2.04109955 26.40316963 C2.01161528 28.9834876 1.92303365 31.51257299 1.76596832 34.08421135 C0.63848295 54.59954214 3.42551604 70.62890283 17.36230087 86.29922581 C24.92422848 94.40185302 32.8768672 102.08304119 40.93545055 109.68702626 C45.29077371 113.83185389 49.55799425 118.06427494 53.82801417 122.29647058 C62.26796376 130.65615662 70.78648477 138.93048719 79.36083984 147.15209961 C87.67157909 155.12129709 95.94108027 163.12986627 104.16064453 171.19311523 C104.67036988 171.69311982 105.18009523 172.1931244 105.7052668 172.70828063 C108.26309755 175.21781226 110.82016224 177.72812281 113.37684774 180.23882115 C134.4670778 200.94773275 155.68954596 221.51773731 177 242 C180.48933577 240.35296864 182.75955899 238.48320216 185.49316406 235.73388672 C186.37377502 234.85312469 187.25438599 233.97236267 188.16168213 233.06491089 C189.11310431 232.10327649 190.06441603 231.1415328 191.015625 230.1796875 C191.99596129 229.19561893 192.97674168 228.21199258 193.95794678 227.22879028 C196.53354467 224.64557286 199.10307857 222.05640488 201.67138672 219.46594238 C204.29551067 216.8213238 206.92533771 214.1823899 209.5546875 211.54296875 C214.7087167 206.36751928 219.85635157 201.18576878 225 196 C223.70899932 193.16312647 222.35529695 191.1054604 220.15418339 188.90529442 C219.57032433 188.31683656 218.98646526 187.7283787 218.3849135 187.12208879 C217.74299718 186.48531603 217.10108086 185.84854327 216.43971252 185.19247437 C215.41739443 184.16653465 215.41739443 184.16653465 214.37442344 183.11986887 C212.08451281 180.82431277 209.78750973 178.5359879 207.49047852 176.24755859 C205.84932917 174.60533658 204.20861281 172.96268177 202.56829834 171.31962585 C198.10805809 166.85453185 193.64158206 162.3957235 189.17384839 157.93812895 C184.9777496 153.74991312 180.7859545 149.55739766 176.59401464 145.36501987 C168.28805919 137.05856381 159.97728231 128.75694843 151.66381836 120.45800781 C143.59443451 112.40271362 135.52856345 104.34392357 127.46655273 96.28125 C126.96994613 95.78460344 126.47333952 95.28795688 125.96168423 94.77626042 C125.46594137 94.2804772 124.97019851 93.78469399 124.45943314 93.27388704 C115.74912985 84.56292904 107.03592984 75.85487475 98.32114983 67.14839554 C94.60790682 63.43868852 90.89551918 59.72812859 87.18377876 56.01691818 C82.81546738 51.6496094 78.4446213 47.2848532 74.07177734 42.9220829 C72.46444846 41.31768131 70.85797088 39.71242635 69.25239372 38.10627174 C67.06632252 35.91971177 64.87721473 33.73623889 62.68727112 31.55355835 C62.04758552 30.91232415 61.40789991 30.27108994 60.7488299 29.6104244 C60.16236309 29.02718204 59.57589628 28.44393967 58.97165775 27.8430233 C58.21403317 27.08645536 58.21403317 27.08645536 57.44110304 26.31460321 C54.58701569 23.71104726 52.4873399 22.73766002 48.73144531 22.40576172 C47.87335266 22.32582977 47.01526001 22.24589783 46.13116455 22.1635437 C45.2061615 22.08637115 44.28115845 22.00919861 43.328125 21.9296875 C41.89445587 21.80075607 41.89445587 21.80075607 40.43182373 21.66921997 C38.40802795 21.48884436 36.38386121 21.31259057 34.359375 21.14013672 C31.27517984 20.87714709 28.19228418 20.60183837 25.109375 20.32421875 C23.14068922 20.15031316 21.17194094 19.97711334 19.203125 19.8046875 C18.28621887 19.72346649 17.36931274 19.64224548 16.42462158 19.55856323 C11.59517388 19.15017891 6.84656653 18.91484197 2 19 Z M463.57468033 18.90667248 C440.15943684 18.53679679 422.30252628 20.71200883 405.03477526 37.37018621 C400.9482408 41.41120749 397.03605474 45.59913106 393.14747906 49.82969499 C389.66607602 53.57028055 386.06517763 57.19263696 382.47711182 60.83049011 C375.73189131 67.70379851 369.094489 74.67162229 362.49299455 81.68278569 C354.98668287 89.64497506 347.36719357 97.49485067 339.73556471 105.33671725 C330.41687972 114.91315569 321.11350474 124.50313195 311.90325928 134.18403625 C311.25490632 134.8651325 310.60655335 135.54622874 309.93855333 136.24796426 C306.91489774 139.42587583 303.89563747 142.6077851 300.88348389 145.79660034 C299.81480528 146.92245159 298.74604386 148.04822424 297.67718506 149.17390442 C297.21689588 149.66439122 296.75660671 150.15487803 296.28236938 150.66022807 C293.68453539 153.38938305 290.98657646 155.91815862 288.13476944 158.38205338 C283.96339252 161.98754262 280.05563786 165.80747163 276.16650391 169.71324158 C275.42054553 170.45834553 274.67458715 171.20344948 273.90602398 171.97113234 C271.42715923 174.44836054 268.9518665 176.92912632 266.4765625 179.40991211 C264.69236883 181.19438807 262.9079545 182.97864343 261.12333679 184.76269531 C257.2919683 188.59383668 253.46212963 192.42649694 249.63369751 196.26057243 C244.09853892 201.80388489 238.56059561 207.34440852 233.02198565 212.88427228 C224.03434484 221.87409752 215.04893587 230.86615003 206.06494141 239.85961914 C197.34183465 248.5919158 188.61767012 257.32315344 179.89208984 266.05297852 C179.35354543 266.59178565 178.81500102 267.13059279 178.26013708 267.68572741 C175.5582025 270.3889671 172.85624721 273.09218608 170.15428162 275.79539478 C147.76630896 298.19372107 125.38200056 320.59570591 103 343 C103.9363831 344.10338218 104.87436188 345.20541029 105.81298828 346.30688477 C106.33514923 346.92072525 106.85731018 347.53456573 107.39529419 348.16700745 C109.76998924 350.87952853 112.30432601 353.41223193 114.875 355.9375 C115.37257812 356.43056641 115.87015625 356.92363281 116.3828125 357.43164062 C117.58620285 358.62345992 118.79275365 359.81208678 120 361 C124.99184388 356.81893546 129.67050098 352.46005753 134.2487793 347.83300781 C135.27943008 346.79775719 135.27943008 346.79775719 136.3309021 345.74159241 C137.81061825 344.25476567 139.28920429 342.76681351 140.76675987 341.27783966 C143.1054065 338.92170402 145.44766515 336.56921486 147.79096985 334.2177124 C154.44867676 327.53562897 161.10065244 320.84786127 167.74829102 314.15576172 C171.82400628 310.05329238 175.90455621 305.955684 179.9881382 301.86104584 C181.54138048 300.30159328 183.09272235 298.7402455 184.64212608 297.17697906 C186.80336089 294.99656516 188.97065175 292.82234683 191.1394043 290.64941406 C191.77792831 290.00212845 192.41645233 289.35484283 193.07432556 288.6879425 C193.96350677 287.80071754 193.96350677 287.80071754 194.87065125 286.89556885 C195.38145076 286.38162693 195.89225027 285.86768501 196.41852856 285.3381691 C199.55497469 282.68425124 201.40713897 281.96879679 205.5625 282.1875 C210.26339969 283.29862175 210.26339969 283.29862175 212 286 C213.18433933 289.13003965 213.17335076 290.54950425 211.96513367 293.68936157 C209.41282106 297.98921371 206.23117597 301.16408392 202.68286133 304.65771484 C201.94115189 305.39986237 201.19944244 306.14200989 200.43525696 306.90664673 C197.99122793 309.34859213 195.53675788 311.7797499 193.08203125 314.2109375 C191.38172626 315.90564505 189.68208408 317.60101783 187.983078 319.29702759 C183.51641576 323.75225283 179.04081672 328.19839402 174.56329346 332.6427002 C169.99314157 337.18212684 165.43150365 341.73009132 160.86914062 346.27734375 C151.92107112 355.19326924 142.96382274 364.09991396 134 373 C135.44304314 376.01409306 136.86591868 378.10472016 139.2578125 380.453125 C139.88300781 381.071875 140.50820312 381.690625 141.15234375 382.328125 C142.12880859 383.27945313 142.12880859 383.27945313 143.125 384.25 C143.78371094 384.8996875 144.44242188 385.549375 145.12109375 386.21875 C146.74297128 387.81712206 148.37018259 389.40973706 150 391 C157.00533566 385.25677196 163.33523007 378.84125102 169.74897766 372.45875549 C171.04859382 371.16889164 172.34840291 369.87922215 173.64838761 368.58972973 C177.21108665 365.05444281 180.77066687 361.51603044 184.32964003 357.9769932 C187.38465602 354.93982808 190.44143727 351.9044425 193.4981688 348.86900414 C222.46521715 320.10265132 251.38412927 291.28780611 280.29284382 262.4628458 C284.0529584 258.71381879 287.81317525 254.96489438 291.57348633 251.21606445 C292.50805623 250.28433908 293.44262614 249.35261371 294.40551635 248.39265423 C309.55462251 233.29054586 324.72848018 218.21354398 339.91154108 203.14558078 C355.50524409 187.66911057 371.07424038 172.16811507 386.62016743 156.64365333 C395.34707702 147.93014403 404.08483408 139.22813298 412.85097694 130.55407906 C420.31390531 123.16954 427.75454032 115.76343467 435.16690407 108.32812703 C438.94837796 104.53634445 442.73957463 100.75586422 446.55991745 97.00321198 C450.06023136 93.56444585 453.52895228 90.09675197 456.97542395 86.60404896 C458.22433118 85.34897401 459.48423215 84.10471908 460.75617007 82.87299008 C469.56304353 74.32817311 472.77120901 68.43519046 473 56 C473.15368573 54.29890887 473.31760201 52.59862321 473.50244141 50.90063477 C473.62281631 49.41454394 473.73923481 47.92812699 473.8515625 46.44140625 C473.94719986 45.24136208 473.94719986 45.24136208 474.04476929 44.01707458 C474.24193374 41.53249462 474.43360096 39.04752998 474.625 36.5625 C474.76004712 34.84827814 474.89546176 33.13408519 475.03125 31.41992188 C475.35838816 27.2802677 475.6806077 23.1402587 476 19 C474.87077999 19.00299512 473.74155998 19.00599024 472.57812119 19.00907612 C469.57525693 19.01158779 466.5767433 18.97315199 463.57468033 18.90667248 Z M296.01315308 270.74633789 C295.20040924 271.56352295 294.38766541 272.38070801 293.55029297 273.22265625 C292.62948944 274.14361084 291.70868591 275.06456543 290.75997925 276.01342773 C289.75394197 277.02967954 288.74801397 278.04603955 287.7421875 279.0625 C286.7141505 280.09426589 285.68567195 281.125592 284.6567688 282.15649414 C281.94634895 284.87456015 279.24198775 287.59857825 276.53881836 290.32385254 C273.78079483 293.10231337 271.01712003 295.87514009 268.25390625 298.6484375 C262.83037075 304.09344023 257.41321945 309.54473927 252 315 C256.11409434 319.903976 260.38527208 324.52535807 264.92333984 329.03686523 C265.5874588 329.70113022 266.25157776 330.3653952 266.93582153 331.04978943 C269.10849559 333.22177269 271.28467872 335.39020279 273.4609375 337.55859375 C274.97715772 339.07294682 276.49315576 340.58752237 278.00894165 342.10231018 C281.98181703 346.07138372 285.95768731 350.03744381 289.9342041 354.00286865 C293.99832554 358.05672562 298.05958622 362.11344637 302.12109375 366.16992188 C310.07794327 374.11607526 318.03796194 382.05904577 326 390 C328.90619135 388.60403514 330.97121766 387.26935799 333.234375 384.9609375 C333.80800781 384.38085938 334.38164062 383.80078125 334.97265625 383.203125 C335.55917969 382.59984375 336.14570313 381.9965625 336.75 381.375 C337.35199219 380.76398438 337.95398438 380.15296875 338.57421875 379.5234375 C340.05405305 378.02011376 341.52764676 376.51065144 343 375 C341.66433413 372.01880209 340.21308813 369.98330956 337.8671875 367.71948242 C337.23312988 367.10171432 336.59907227 366.48394623 335.94580078 365.84745789 C335.26243652 365.19010147 334.57907227 364.53274506 333.875 363.85546875 C332.43186195 362.44249604 330.98916729 361.02907038 329.546875 359.61523438 C327.27403227 357.39813228 324.99755787 355.18514312 322.71289062 352.98022461 C320.50564162 350.84570799 318.31451104 348.69565636 316.125 346.54296875 C315.44163574 345.89168503 314.75827148 345.24040131 314.05419922 344.56938171 C310.00162865 340.56048441 307.90750371 337.68272245 307 332 C307.95394311 328.09750546 308.59410183 327.27059878 312 325 C315.2628129 324.42420949 317.72919483 324.15461208 320.5949707 326.06103516 C327.99537519 332.74438314 334.9737809 339.865967 342 346.9375 C343.36044318 348.30296745 344.72111831 349.66820386 346.08203125 351.03320312 C349.3907031 354.35280886 352.69621322 357.67553273 356 361 C357.10338218 360.0636169 358.20541029 359.12563812 359.30688477 358.18701172 C359.92072525 357.66485077 360.53456573 357.14268982 361.16700745 356.60470581 C363.87952853 354.23001076 366.41223193 351.69567399 368.9375 349.125 C369.43056641 348.62742187 369.92363281 348.12984375 370.43164062 347.6171875 C371.62345992 346.41379715 372.81208678 345.20724635 374 344 C369.89039714 339.10515987 365.62800048 334.47938531 361.10839844 329.96313477 C360.44749207 329.29886978 359.78658569 328.6346048 359.10565186 327.95021057 C356.94284393 325.77798166 354.77635833 323.60946932 352.609375 321.44140625 C351.09809158 319.92690724 349.5868826 318.41233396 348.07574463 316.89768982 C344.92043403 313.73641247 341.76308456 310.57718764 338.60449219 307.41918945 C334.54835945 303.36315892 330.49918279 299.30025868 326.45168686 295.23561192 C323.33939337 292.11223721 320.22260345 288.99338021 317.10449982 285.87580681 C315.60849833 284.37862209 314.11412542 282.87980831 312.6213913 281.37936592 C310.54362152 279.2918622 308.45968902 277.21071415 306.37402344 275.13110352 C305.75479004 274.50625061 305.13555664 273.88139771 304.49755859 273.23760986 C300.61642566 268.70652387 300.61642566 268.70652387 296.01315308 270.74633789 Z M66 344 C64.25698463 346.37683914 63.93941185 347.45347599 64.26503849 350.3907299 C65.08815428 353.31296648 66.08323898 354.66268712 68.13438416 356.87332153 C68.76786711 357.562085 69.40135006 358.25084846 70.05402946 358.96048355 C70.69619974 359.63352398 71.33837002 360.30656441 72 361 C72.55936312 361.58841549 73.11872623 362.17683098 73.69503975 362.78307724 C75.39786509 364.54693128 77.12018503 366.28932947 78.84985352 368.02685547 C79.49472717 368.67830032 80.13960083 369.32974518 80.80401611 370.00093079 C82.90946174 372.12586823 85.01871548 374.24696274 87.12890625 376.3671875 C87.85417952 377.09653629 88.57945278 377.82588509 89.32670403 378.57733536 C93.15617725 382.42755259 96.98883414 386.27456882 100.82397461 390.11914062 C104.7789299 394.08521853 108.72205806 398.06284717 112.6627512 402.04308891 C115.70416754 405.11062155 118.75440915 408.16926192 121.80711174 411.22555923 C123.26530635 412.68862186 124.72012345 414.15505896 126.17144966 415.62493515 C128.19818419 417.675984 130.23714619 419.71407306 132.27954102 421.74951172 C132.87347153 422.35625229 133.46740204 422.96299286 134.07933044 423.58811951 C137.47966115 426.94642831 140.17306356 429.00653621 145 430 C148.8665824 429.0333544 149.74490465 428.38264302 152 425 C152.52208683 421.60643561 152.71688977 419.16185584 150.8671875 416.1640625 C148.47961742 413.30147847 145.9337897 410.94505954 143.0625 408.5625 C140.71554405 406.59872053 139.00741559 404.92267354 137.07641602 402.62036133 C131.90576278 396.64560395 126.28966676 391.10492973 120.71484375 385.51171875 C120.13299379 384.92704142 119.55114384 384.34236408 118.95166206 383.73996925 C115.88053533 380.65395493 112.80662565 377.57074642 109.73022461 374.48999023 C106.56395705 371.31821133 103.40709663 368.13723719 100.25228024 364.95407391 C97.81145178 362.49460272 95.36392254 360.04188365 92.91452217 357.59095192 C91.74748729 356.42090057 90.58294167 355.24836063 89.42100334 354.07324791 C87.79672945 352.43185744 86.16318433 350.80026099 84.52709961 349.1706543 C83.60223251 348.24214157 82.67736542 347.31362885 81.72447205 346.35697937 C75.98094495 341.3881727 72.35935924 339.54844853 66 344 Z M395.63409424 347.08502197 C394.33336773 348.36177624 393.03804107 349.64404625 391.74707031 350.93066406 C390.68036858 351.98247108 390.68036858 351.98247108 389.59211731 353.05552673 C387.24852228 355.36998189 384.91272162 357.69209538 382.578125 360.015625 C380.95099248 361.63124966 379.32385619 363.24687054 377.69671631 364.86248779 C374.29018229 368.24803377 370.88831215 371.63819649 367.48876953 375.03076172 C363.13191506 379.37662867 358.75681251 383.70362458 354.37712479 388.02646255 C351.01106698 391.35528319 347.65849022 394.69743419 344.30947113 398.04338837 C342.702067 399.64473893 341.08966157 401.24108551 339.47220612 402.83228302 C337.21219098 405.05819571 334.97186042 407.30226189 332.73535156 409.55175781 C331.72862144 410.53084358 331.72862144 410.53084358 330.70155334 411.52970886 C326.80948704 415.49303141 324.97339565 418.17960799 325 424 C326.32161427 427.06873898 326.32161427 427.06873898 329 429 C332.32594755 430.00234186 332.32594755 430.00234186 336 429 C337.93141952 427.64554986 337.93141952 427.64554986 339.78846741 425.89094543 C340.48855989 425.25514368 341.18865238 424.61934193 341.90995979 423.96427345 C345.03750944 421.02492198 348.10474763 418.03477537 351.13452148 414.99487305 C351.7973262 414.33382065 352.46013092 413.67276825 353.14302063 412.99168396 C355.30487847 410.83418186 357.46311212 408.67309738 359.62109375 406.51171875 C361.13169505 405.00179181 362.64244471 403.49201329 364.15333557 401.9823761 C367.30428993 398.83288977 370.45344386 395.68161726 373.60131836 392.52905273 C377.64211568 388.48252915 381.68742557 384.44055111 385.73406887 380.39987469 C388.84728901 377.29025928 391.95813445 374.17827705 395.06825447 371.06556129 C396.55991217 369.5732356 398.05231558 368.0816549 399.54546928 366.59082603 C401.62315027 364.51567327 403.6976182 362.43736193 405.77124023 360.3581543 C406.39092682 359.74049194 407.0106134 359.12282959 407.64907837 358.4864502 C411.80241473 354.47411869 411.80241473 354.47411869 413.3125 349.125 C413.26107076 345.94806645 413.26107076 345.94806645 411.3125 343.6875 C404.84006416 338.96437115 400.81975936 342.16443575 395.63409424 347.08502197 Z M80.97518921 400.78430176 C80.14468048 401.61925171 79.31417175 402.45420166 78.45849609 403.31445312 C77.99978622 403.77287094 77.54107635 404.23128876 77.06846619 404.70359802 C75.54867024 406.22479083 74.0360863 407.75295269 72.5234375 409.28125 C71.47298023 410.33543614 70.42208144 411.3891825 69.37075806 412.44250488 C66.60115511 415.21975425 63.83760966 418.00295683 61.07525635 420.78741455 C58.2569093 423.62619833 55.43291167 426.45934833 52.609375 429.29296875 C47.06735051 434.85646093 41.53170863 440.42625088 36 446 C37.08403171 449.25209513 37.79991716 449.91385694 40.375 452 C42.73465328 453.92788693 44.83084073 455.83084073 47 458 C62.84 442.16 78.68 426.32 95 410 C90.23209107 404.26083236 90.23209107 404.26083236 85 399 C82.80028442 398.77961894 82.80028442 398.77961894 80.97518921 400.78430176 Z M389.6171875 401.1875 C388.25980469 402.5796875 388.25980469 402.5796875 386.875 404 C385.96492188 404.928125 385.05484375 405.85625 384.1171875 406.8125 C383.41851562 407.534375 382.71984375 408.25625 382 409 C386.93242889 414.94115185 392.24835954 420.40944175 397.703125 425.87109375 C398.62212585 426.793423 399.54112671 427.71575226 400.48797607 428.66603088 C402.4192592 430.6032586 404.35255368 432.53845273 406.28710938 434.47241211 C408.76936524 436.95456546 411.24461781 439.44358192 413.71825027 441.93432522 C416.08373852 444.31355388 418.45635047 446.68563169 420.828125 449.05859375 C421.71767883 449.9553331 422.60723267 450.85207245 423.52374268 451.77598572 C424.34509705 452.59426346 425.16645142 453.4125412 426.01269531 454.25561523 C426.73628235 454.98062729 427.45986938 455.70563934 428.2053833 456.45262146 C429.85751523 458.21767036 429.85751523 458.21767036 432 458 C432.86625 456.63875 432.86625 456.63875 433.75 455.25 C436.2758091 451.60160908 438.24557868 450.21852169 442 448 C437.06757111 442.05884815 431.75164046 436.59055825 426.296875 431.12890625 C425.37787415 430.206577 424.45887329 429.28424774 423.51202393 428.33396912 C421.5807408 426.3967414 419.64744632 424.46154727 417.71289062 422.52758789 C415.23063476 420.04543454 412.75538219 417.55641808 410.28174973 415.06567478 C407.91626148 412.68644612 405.54364953 410.31436831 403.171875 407.94140625 C402.28232117 407.0446669 401.39276733 406.14792755 400.47625732 405.22401428 C399.65490295 404.40573654 398.83354858 403.5874588 397.98730469 402.74438477 C397.26371765 402.01937271 396.54013062 401.29436066 395.7946167 400.54737854 C392.9310452 398.07831142 392.38628667 398.64537617 389.6171875 401.1875 Z M5.40625 464.4296875 C1.43196747 469.07405254 0.69358611 472.83176308 0.7890625 478.72265625 C1.24039862 483.59541469 3.4190507 486.68585024 7 489.8125 C11.52286524 493.11042257 15.52423286 493.562151 21 493 C25.91955186 491.26368758 29.3710807 488.51232417 32 484 C33.85238112 479.45324634 34.50016911 475.48267637 33 470.75 C30.6536715 465.56120305 27.12815296 462.89382424 21.875 460.6875 C15.94446255 459.269328 10.02075117 460.29020851 5.40625 464.4296875 Z M446 468 C443.67042128 472.10449584 443.31265254 476.37362284 444 481 C446.18732412 486.37717179 448.7855298 489.27959259 453.859375 492.1171875 C458.18538728 493.90127286 461.71997837 493.70730598 466.140625 492.3359375 C471.55409478 490.03020037 473.55737333 487.2760736 476 482 C476.33 481.34 476.66 480.68 477 480 C477.22109542 474.74177409 476.7283683 470.24750364 473.375 466.0625 C469.63559272 462.2603209 465.81752179 460.42262827 460.5 459.625 C454.3074554 460.55388169 449.97108384 463.2346994 446 468 Z " fill="#000000" transform="translate(17,0)"/>
</svg>
