<?xml version="1.0" encoding="UTF-8" standalone="no"?>
<!-- Created with Inkscape (http://www.inkscape.org/) -->

<svg
   width="210mm"
   height="297mm"
   viewBox="0 0 210 297"
   version="1.1"
   id="svg1"
   inkscape:export-filename="bitmap.svg"
   inkscape:export-xdpi="96"
   inkscape:export-ydpi="96"
   sodipodi:docname="bitmap.svg"
   inkscape:version="1.4.3 (0d15f75, 2025-12-25)"
   xml:space="preserve"
   xmlns:inkscape="http://www.inkscape.org/namespaces/inkscape"
   xmlns:sodipodi="http://sodipodi.sourceforge.net/DTD/sodipodi-0.dtd"
   xmlns="http://www.w3.org/2000/svg"
   xmlns:svg="http://www.w3.org/2000/svg"><sodipodi:namedview
     id="namedview1"
     pagecolor="#000000"
     bordercolor="#000000"
     borderopacity="0"
     inkscape:showpageshadow="2"
     inkscape:pageopacity="0.0"
     inkscape:pagecheckerboard="0"
     inkscape:deskcolor="#d1d1d1"
     inkscape:document-units="mm"
     inkscape:zoom="0.49204085"
     inkscape:cx="447.11735"
     inkscape:cy="900.33175"
     inkscape:window-width="1229"
     inkscape:window-height="781"
     inkscape:window-x="0"
     inkscape:window-y="38"
     inkscape:window-maximized="0"
     inkscape:current-layer="layer1"
     inkscape:antialias-rendering="true"
     showborder="true"
     inkscape:export-bgcolor="#ffffff00"><inkscape:page
       x="0"
       y="0"
       width="210"
       height="297"
       id="page2"
       margin="0"
       bleed="0" /></sodipodi:namedview><defs
     id="defs1" /><g
     inkscape:groupmode="layer"
     id="layer1"
     inkscape:label="Layer 1"><path
       style="fill:#ffffff;fill-opacity:1;stroke-width:0.264583"
       d="m -25.069447,262.20675 c 0.133941,-0.1536 19.2454054,-13.61319 60.369386,-58.80553 L 6.0415313,162.98944 17.160263,145.71268 49.879129,181.01487 168.6468,38.952377 211.29098,13.581042 190.31214,58.894369 68.432274,203.91962 97.597062,239.50485 80.940811,252.37857 50.751336,218.46363 C 31.666979,243.25045 13.056845,261.08674 -4.8965254,286.69818 -13.939649,277.97792 -18.127109,272.67342 -25.069447,262.20675 Z"
       id="path2"
       sodipodi:nodetypes="cccccccccccccc" /><path
       style="fill:#ffffff;fill-opacity:1;stroke-width:0.264583"
       d="m 235.73394,260.79122 c -0.13394,-0.1536 -19.2454,-13.61319 -60.36938,-58.80553 l 29.2584,-40.41178 -11.11873,-17.27676 -32.71886,35.30219 L 42.017691,37.53685 -0.62649087,12.165515 20.352351,57.478842 142.23222,202.50409 l -29.16479,35.58523 16.65625,12.87372 30.18948,-33.91494 c 19.08436,24.78682 37.69449,42.62311 55.64786,68.23455 9.04312,-8.72026 13.23058,-14.02476 20.17292,-24.49143 z"
       id="path2-9"
       sodipodi:nodetypes="cccccccccccccc" /></g></svg>
